<?xml version="1.0" encoding="utf-8"?>
<!-- Generator: Adobe Illustrator 16.0.0, SVG Export Plug-In . SVG Version: 6.00 Build 0)  -->
<!DOCTYPE svg PUBLIC "-//W3C//DTD SVG 1.1//EN" "http://www.w3.org/Graphics/SVG/1.1/DTD/svg11.dtd">
<svg xmlns="http://www.w3.org/2000/svg" xmlns:xlink="http://www.w3.org/1999/xlink" version="1.1" id="Layer_1" x="0px" y="0px" width="480px" height="480px" viewBox="0 0 512 512" enable-background="new 0 0 512 512" xml:space="preserve">
<g>
	<g>
		<g>
			<path fill="#BCBCBC" d="M469.9,164.2c-16.1-46.6-46.7-87.1-91.3-109.6c-50.9-25.7-111-28.1-166.4-19.3     c-49.8,7.9-102.3,25.9-139.6,61.1c-19.6,18.5-34.7,40.9-42.7,66.8c-8,26-10.4,53.1-12.1,80.1c-0.1,1.1-0.4,2-1,2.7     c0,0.2,0.1,0.5,0.1,0.8c0,52.9-1.1,108.3,30.1,153.9c25.3,37.1,64.5,61.5,107.2,73.7c88,25.2,194.2,9.6,264.9-50.8     C493.2,360.3,500.1,251.3,469.9,164.2z M433.4,159.8c-1.5,0.1-3,0.1-4.5,0.1c-0.7,0.5-1.5,1-2.5,1.2     c-11.3,2.5-19.7,10.3-26.4,19.4c-0.2,0.3-0.5,0.6-0.8,0.8c0,0.1-0.1,0.1-0.1,0.2c-3.8,5.3-4.7,12.7-6.1,18.8     c-1.7,7.9-4.5,14.9-7.3,22.4c-3.5,9.5-6.4,19.2-10.2,28.5c-3.8,9.3-8.1,18.4-12.8,27.3c-4.6,8.7-9.5,17.4-13.3,26.5     c-3.7,8.7-6.6,17.6-9.4,26.7c-2,6.5-4.5,12.7-7.4,18.8c0,0.3,0,0.7-0.1,1c-2.1,10.8-5.6,21.5-11.7,30.7c-1.5,2.2-3,4.5-4.1,6.9     c-1,2.2-1.5,4.6-2.7,6.7c-1.6,2.8-3.5,5.5-6.8,6.5c-10.2,3-14.2-11.1-16.5-18.1c-0.1-0.4-0.2-0.7-0.4-1.1     c-2.7-6.7-5.3-13.5-7.2-20.4c-6.5-13.8-10.3-29-16.3-43c-1.8-4.2-3.5-8.4-5.3-12.6c-0.3,0.7-0.6,1.4-0.9,2     c-3.7,8.7-6.6,17.6-9.4,26.7c-2.8,9.3-6.8,17.8-11.2,26.5c-3,5.9-9.4,11.8-9.6,18.7c0,1.1-0.3,2-0.8,2.7     c-1.1,7.5-8,13.4-12.1,19.4c-4.2,6.1-10.9,13.1-18.8,8.5c-8.1-4.8-9.7-16.4-13.2-24.3c-2.8-6.3-5.2-12.6-6.1-19.3     c-7.5-14.6-11.4-31.1-17.8-46.2c-7.3-17-14.1-34.3-20.1-51.8c-6-17.3-10.9-34.9-17.2-52.1c-5.3-14.3-11.1-28.4-16.9-42.6     c-6.2-5.9-13.3-10.3-22.1-9.4c-1.5-0.5-3.2-0.5-5-0.3c-0.4-0.2-0.7-0.5-1-0.7c-4.6-0.1-9.1-0.1-13.7,0.1     c-7,0.3-8.4-10.6-1.4-10.9c20.1-0.8,40.1,2.2,60.1,1.2c15.6-0.8,31.9-3.7,47,1.4c5.6,1.9,3.5,9.1-1.2,10.2c-1,0-1.9-0.1-2.9-0.1     c-0.1,0-0.2-0.1-0.3-0.1c-2.4-0.8-4.9-1.4-7.4-1.7c-0.5,0.3-1.1,0.6-1.8,0.7c-4.1,0.9-12.3,2.1-14.4,6.5     c-1.2,2.5-0.9,4.7-0.9,7.5c0,0.9,0,1.8,0,2.6c7.3,15.5,12.9,31.9,19.1,47.7c8.4,21.8,16.9,43.5,24.8,65.5     c3.7,10.4,7.5,20.7,12,30.8c2.2,4.9,4.5,9.8,6.3,14.9c0.9,2.4,2.7,5.8,2.7,8.8c1.4,2.4,2.9,4.8,4.1,7.2     c3.3,5.9,6.1,11.9,7.2,18.9c0.3,0.8,0.5,1.6,0.8,2.4c0.1-0.2,0.2-0.4,0.3-0.6c0.8-7.7,6.9-13.6,10.3-20.2     c4.4-8.6,8.3-17.2,11.2-26.5c2.9-9.6,5.9-19.2,10.1-28.3c1.5-3.3,3.1-6.5,4.8-9.8c-3.3-8.4-6.4-16.9-9.3-25.4     c-6-17.3-10.9-34.9-17.2-52.1c-5.3-14.3-11.1-28.4-16.9-42.6c-6.6-6.3-14.2-10.9-23.7-9.1c-0.2,0-0.3,0-0.5,0.1     c-0.2-4-0.6-8-0.9-12c14,0.6,28,1.8,42.1,1.1c13.6-0.7,27.7-3,41.2-0.2c-0.3,3.8-0.2,7.5,0.1,11.3c-2-0.6-4.1-1-6.2-1.3     c-0.5,0.3-1.1,0.6-1.8,0.7c-4.1,0.9-12.3,2.1-14.4,6.5c-1.2,2.5-0.9,4.7-0.9,7.5c0,0.9,0,1.8,0,2.6c7.3,15.5,12.9,31.9,19.1,47.7     c3.2,8.1,6.3,16.3,9.4,24.4c0.7-1.7,1.3-3.4,2-5.1c3.5-9.5,6.4-19.2,10.2-28.5c2.9-7.1,4.5-14,6.3-21.4     c1.5-6.3,3.1-12.7,6.7-18.1c-0.1-0.1-0.1-0.3-0.1-0.4c1-2.6,1.1-5.4-0.3-8.2c-0.6-1.3-1.5-2.3-2.5-3.1c-0.1-0.1-0.3-0.2-0.4-0.3     c-1.6-1.1-3.7-1.7-5.8-2c-0.1-0.2-0.3-0.4-0.4-0.6c-0.9,0.1-1.7,0.1-2.5,0.2c-4.6-0.4-9.3-0.2-12.6-1.5c-0.4-0.2-0.8-0.2-1.2-0.2     c-1.6-3-0.6-7.7,3.9-8.3c21.2-2.9,42.7-1.1,64-2c7-0.3,8.4,10.6,1.4,10.9c-1.5,0.1-3,0.1-4.5,0.1c-0.7,0.5-1.5,1-2.5,1.2     c-11.3,2.5-19.7,10.3-26.4,19.4c-0.2,0.3-0.5,0.6-0.8,0.8c0,0.1-0.1,0.1-0.1,0.2c-3.8,5.3-4.7,12.7-6.1,18.8     c-1.7,7.9-4.5,14.9-7.3,22.4c-3.5,9.5-6.4,19.2-10.2,28.5c-1.6,4-3.3,7.8-5.1,11.7c3.3,8.8,6.6,17.6,9.8,26.5     c3.7,10.4,7.5,20.7,12,30.8c2.2,4.9,4.5,9.8,6.3,14.9c0.9,2.4,2.6,5.6,2.7,8.6c1.2,2.4,2.6,4.8,3.7,7.2c0.4,0.4,0.8,0.8,1,1.3     c0.5-0.9,1-1.7,1.5-2.6c4.4-8.6,8.3-17.2,11.2-26.5c2.9-9.6,5.9-19.2,10.1-28.3c4.2-9,8.9-17.7,13.5-26.5     c4.9-9.5,9.6-19.2,13.3-29.2c3.5-9.5,6.4-19.2,10.2-28.5c2.9-7.1,4.5-14,6.3-21.4c1.5-6.3,3.1-12.7,6.7-18.1     c-0.1-0.2-0.1-0.4-0.2-0.7c1.6-3.9,1.5-8.2-2.1-11.5c-4.8-4.5-13.2-2-19.3-1.3c-6.2-0.1-7.1-10.1-0.4-11c21.2-2.9,42.7-1.1,64-2     C439.1,148.6,440.5,159.5,433.4,159.8z"/>
		</g>
	</g>
	<g>
		<g>
			<path d="M483.5,171.1c-14.2-46.9-40.9-88.3-82-115.7c-46.4-31-105.3-38.4-159.8-34.4c-51.7,3.8-104.6,17.9-148.6,46     c-21.6,13.8-40.9,31.9-55,53.4c-14.9,22.7-22.5,48.8-26.6,75.4c-2.3,15.1-3.4,30.3-4.4,45.6c-0.1,0.9,0.1,1.8,0.4,2.6     c-0.9,0.9-1.5,2.2-1.5,3.8c0,30.1-0.6,60.4,4.6,90.2c4.8,27.1,15.2,52.9,31.6,75.1c29.2,39.5,73.5,63.3,120.4,75     c88.9,22.2,194.2,3.7,264.5-57.1C501.2,366.9,510.4,260.1,483.5,171.1z M419.1,423.6c-70.8,60.4-176.9,76-264.9,50.8     c-42.7-12.2-81.9-36.6-107.2-73.7c-31.1-45.6-30.1-101-30.1-153.9c0-0.3,0-0.5-0.1-0.8c0.5-0.7,0.9-1.6,1-2.7     c1.7-27,4.1-54.1,12.1-80.1c7.9-25.9,23.1-48.3,42.7-66.8c37.3-35.2,89.8-53.2,139.6-61.1c55.5-8.8,115.5-6.4,166.4,19.3     c44.6,22.5,75.1,63.1,91.3,109.6C500.1,251.3,493.2,360.3,419.1,423.6z"/>
		</g>
	</g>
	<g>
		<g>
			<path d="M256.1,293.4c-1.6,3.2-3.2,6.5-4.8,9.8c-4.2,9.1-7.2,18.7-10.1,28.3c-2.8,9.3-6.8,17.8-11.2,26.5     c-3.4,6.6-9.5,12.6-10.3,20.2c-0.1,0.2-0.2,0.4-0.3,0.6c-0.3-0.8-0.5-1.6-0.8-2.4c-1-7-3.9-13-7.2-18.9c-1.2-2.4-2.7-4.8-4.1-7.2     c0-3-1.8-6.4-2.7-8.8c-1.9-5.1-4.1-10-6.3-14.9c-4.6-10.1-8.3-20.3-12-30.8c-7.9-22-16.3-43.7-24.8-65.5     c-6.1-15.8-11.8-32.3-19.1-47.7c0-0.9,0-1.8,0-2.6c0-2.7-0.3-4.9,0.9-7.5c2.1-4.4,10.3-5.6,14.4-6.5c0.7-0.1,1.3-0.4,1.8-0.7     c2.5,0.4,5,0.9,7.4,1.7c0.1,0,0.2,0.1,0.3,0.1c1,0,1.9,0,2.9,0.1c4.7-1.2,6.8-8.4,1.2-10.2c-15.1-5.1-31.4-2.2-47-1.4     c-20,1-40.1-2-60.1-1.2c-7.1,0.3-5.7,11.2,1.4,10.9c4.6-0.2,9.1-0.2,13.7-0.1c0.3,0.3,0.6,0.5,1,0.7c1.8-0.2,3.4-0.3,5,0.3     c8.8-1,15.9,3.5,22.1,9.4c5.8,14.1,11.6,28.2,16.9,42.6c6.4,17.2,11.3,34.8,17.2,52.1c6,17.5,12.8,34.7,20.1,51.8     c6.5,15.1,10.4,31.5,17.8,46.2c0.9,6.6,3.3,13,6.1,19.3c3.6,8,5.1,19.5,13.2,24.3c7.9,4.6,14.6-2.4,18.8-8.5     c4.1-6,11.1-11.9,12.1-19.4c0.5-0.7,0.8-1.6,0.8-2.7c0.2-6.8,6.6-12.8,9.6-18.7c4.4-8.6,8.4-17.2,11.2-26.5     c2.7-9,5.6-18,9.4-26.7c0.3-0.7,0.6-1.4,0.9-2C259.8,302.6,257.9,298,256.1,293.4z"/>
		</g>
	</g>
	<g>
		<g>
			<path d="M343.4,153c-21.3,0.9-42.8-0.9-64,2c-4.5,0.6-5.5,5.3-3.9,8.3c0.4,0,0.8,0,1.2,0.2c3.2,1.3,8,1.2,12.6,1.5     c0.9-0.1,1.7-0.2,2.5-0.2c0.1,0.2,0.3,0.4,0.4,0.6c2.2,0.4,4.2,1,5.8,2c0.2,0.1,0.3,0.2,0.4,0.3c1,0.8,1.9,1.8,2.5,3.1     c1.4,2.8,1.2,5.6,0.3,8.2c0,0.1,0.1,0.3,0.1,0.4c-3.7,5.4-5.3,11.8-6.7,18.1c-1.7,7.4-3.4,14.3-6.3,21.4     c-3.8,9.3-6.7,19-10.2,28.5c-0.6,1.7-1.3,3.4-2,5.1c1.9,4.9,3.7,9.7,5.6,14.6c1.8-3.9,3.5-7.7,5.1-11.7c3.8-9.3,6.7-19,10.2-28.5     c2.8-7.5,5.5-14.5,7.3-22.4c1.4-6.2,2.3-13.6,6.1-18.8c0-0.1,0.1-0.1,0.1-0.2c0.3-0.2,0.6-0.5,0.8-0.8     c6.7-9.1,15.1-16.9,26.4-19.4c1-0.2,1.8-0.6,2.5-1.2c1.5,0,3-0.1,4.5-0.1C351.8,163.6,350.4,152.7,343.4,153z"/>
		</g>
	</g>
	<g>
		<g>
			<path d="M266.8,228.1c-6.1-15.8-11.8-32.3-19.1-47.7c0-0.9,0-1.8,0-2.6c0-2.7-0.3-4.9,0.9-7.5c2.1-4.4,10.3-5.6,14.4-6.5     c0.7-0.1,1.3-0.4,1.8-0.7c2.1,0.3,4.1,0.7,6.2,1.3c-0.3-3.7-0.4-7.5-0.1-11.3c-13.4-2.8-27.6-0.5-41.2,0.2     c-14,0.7-28-0.6-42.1-1.1c0.3,4,0.7,8,0.9,12c0.2,0,0.3,0,0.5-0.1c9.6-1.7,17.1,2.9,23.7,9.1c5.8,14.1,11.6,28.2,16.9,42.6     c6.4,17.2,11.3,34.8,17.2,52.1c2.9,8.5,6.1,17,9.3,25.4c2.9-5.6,5.8-11.2,8.7-16.8c4.1-7.9,8-15.9,11.3-24.1     C273.1,244.4,269.9,236.2,266.8,228.1z"/>
		</g>
	</g>
	<g>
		<g>
			<path d="M432.1,148.9c-21.3,0.9-42.8-0.9-64,2c-6.7,0.9-5.8,10.9,0.4,11c6.1-0.7,14.5-3.2,19.3,1.3c3.5,3.3,3.6,7.6,2.1,11.5     c0.1,0.2,0.1,0.5,0.2,0.7c-3.7,5.4-5.3,11.8-6.7,18.1c-1.7,7.4-3.4,14.3-6.3,21.4c-3.8,9.3-6.7,19-10.2,28.5     c-3.7,10-8.4,19.7-13.3,29.2c-4.6,8.8-9.3,17.5-13.5,26.5c-4.2,9.1-7.2,18.7-10.1,28.3c-2.8,9.3-6.8,17.8-11.2,26.5     c-0.4,0.9-0.9,1.7-1.5,2.6c-0.3-0.5-0.6-0.9-1-1.3c-1.1-2.5-2.5-4.8-3.7-7.2c-0.1-2.9-1.8-6.2-2.7-8.6c-1.9-5.1-4.1-10-6.3-14.9     c-4.6-10.1-8.3-20.3-12-30.8c-3.2-8.9-6.4-17.7-9.8-26.5c-2.4,5.3-5,10.5-7.7,15.6c-4.2,8.1-8.7,16.1-12.4,24.4     c1.7,4.2,3.5,8.4,5.3,12.6c6,14,9.8,29.2,16.3,43c2,6.9,4.6,13.7,7.2,20.4c0.1,0.4,0.2,0.8,0.4,1.1c2.4,7,6.4,21.1,16.5,18.1     c3.3-1,5.2-3.7,6.8-6.5c1.2-2.1,1.7-4.5,2.7-6.7c1.1-2.5,2.7-4.7,4.1-6.9c6.1-9.3,9.6-19.9,11.7-30.7c0.1-0.4,0.1-0.7,0.1-1     c2.9-6.1,5.4-12.3,7.4-18.8c2.7-9,5.6-18,9.4-26.7c3.9-9.1,8.8-17.8,13.3-26.5c4.7-8.9,9-18,12.8-27.3c3.8-9.3,6.7-19,10.2-28.5     c2.8-7.5,5.5-14.5,7.3-22.4c1.4-6.2,2.3-13.6,6.1-18.8c0-0.1,0.1-0.1,0.1-0.2c0.3-0.2,0.6-0.5,0.8-0.8     c6.7-9.1,15.1-16.9,26.4-19.4c1-0.2,1.8-0.6,2.5-1.2c1.5,0,3-0.1,4.5-0.1C440.5,159.5,439.1,148.6,432.1,148.9z"/>
		</g>
	</g>
	<g>
		<g>
			<path d="M276.2,252.5c-3.3,8.2-7.2,16.2-11.3,24.1c-2.9,5.6-5.9,11.2-8.7,16.8c1.8,4.6,3.6,9.2,5.5,13.8     c3.7-8.3,8.2-16.4,12.4-24.4c2.7-5.2,5.3-10.4,7.7-15.6C279.9,262.2,278.1,257.4,276.2,252.5z"/>
		</g>
	</g>
</g>
</svg>
